# AST/ASF file generated using VICON BodyLanguage
# -----------------------------------------------
:version 1.10
:name VICON
:units
  mass 1.0
  length 0.45
  angle deg
:documentation
   .ast/.asf automatically generated from VICON data using
   VICON BodyBuilder and BodyLanguage model FoxedUp or BRILLIANT.MOD
:root
   order TX TY TZ RX RY RZ
   axis XYZ
   position 0 0 0  
   orientation 0 0 0 
:bonedata
  begin
     id 1 
     name lhipjoint
     direction 0.567149 -0.783011 0.255413 
     length 2.28399 
     axis 0 0 0  XYZ
  end
  begin
     id 2 
     name lfemur
     direction 0.34202 -0.939693 0  
     length 7.34031  
     axis 0 0 20  XYZ
    dof rx ry rz
    limits (-160.0 20.0)
           (-70.0 70.0)
           (-60.0 70.0)
  end
  begin
     id 3 
     name ltibia
     direction 0.34202 -0.939693 0   
     length 6.9833   
     axis 0 0 20   XYZ
    dof rx
    limits (-10.0 170.0)
  end
  begin
     id 4 
     name lfoot
     direction 0.136498 -0.375025 0.91691   
     length 2.33665   
     axis -90 7.62852e-016 20   XYZ
    dof rx rz
    limits (-45.0 90.0)
           (-70.0 20.0)
  end
  begin
     id 5 
     name ltoes
     direction 1.5367e-011 -4.21617e-011 1   
     length 1.15039   
     axis -90 7.62852e-016 20   XYZ
    dof rx
    limits (-90.0 20.0)
  end
  begin
     id 6 
     name rhipjoint
     direction -0.602854 -0.758518 0.247423   
     length 2.35775  
     axis 0 0 0  XYZ 
  end
  begin
     id 7 
     name rfemur
     direction -0.34202 -0.939693 0   
     length 7.43932   
     axis 0 0 -20   XYZ
    dof rx ry rz
    limits (-160.0 20.0)
           (-70.0 70.0)
           (-70.0 60.0)
  end
  begin
     id 8 
     name rtibia
     direction -0.34202 -0.939693 0   
     length 7.11893   
     axis 0 0 -20   XYZ
    dof rx
    limits (-10.0 170.0)
 end
 begin
     id 9 
     name rfoot
     direction -0.131771 -0.362037 0.922803   
     length 2.53019  
     axis -90 -7.62852e-016 -20   XYZ
    dof rx rz
    limits (-45.0 90.0)
           (-20.0 70.0)
  end
  begin
     id 10 
     name rtoes
     direction -1.53733e-011 -4.21932e-011 1   
     length 1.24596   
     axis -90 -7.62852e-016 -20   XYZ
    dof rx
    limits (-90.0 20.0)
  end
  begin
     id 11 
     name lowerback
     direction 0.0235427 0.999023 -0.0374125   
     length 2.21768   
     axis 0 0 0   XYZ
    dof rx ry rz
    limits (-20.0 45.0)
           (-30.0 30.0)
           (-30.0 30.0)
  end
  begin
     id 12 
     name upperback
     direction 0.0302156 0.996818 -0.073759   
     length 2.20352   
     axis 0 0 0   XYZ
    dof rx ry rz
    limits (-20.0 45.0)
           (-30.0 30.0)
           (-30.0 30.0)
  end
  begin
     id 13 
     name thorax
     direction 0.0187169 0.998235 -0.0563532   
     length 2.22103   
     axis 0 0 0   XYZ
    dof rx ry rz
    limits (-20.0 45.0)
           (-30.0 30.0)
           (-30.0 30.0)
  end
  begin
     id 14 
     name lowerneck
     direction -0.119528 0.987423 0.103481   
     length 1.72948   
     axis 0 0 0   XYZ
    dof rx ry rz
    limits (-20.0 45.0)
           (-30.0 30.0)
           (-30.0 30.0)
  end
  begin
     id 15 
     name upperneck
     direction 0.248049 0.963095 -0.104496   
     length 1.74979   
     axis 0 0 0   XYZ
    dof rx ry rz
    limits (-20.0 45.0)
           (-30.0 30.0)
           (-30.0 30.0)
  end
  begin
     id 16
     name head
     direction 0.0903589 0.994284 -0.056876  
     length 1.78268  
     axis 0 0 0   XYZ
    dof rx ry rz
    limits (-20.0 45.0)
           (-30.0 30.0)
           (-30.0 30.0)
  end
  begin
     id 17 
     name lclavicle
     direction 0.946008 0.242039 -0.215608  
     length 3.80783  
     axis 0 0 0   XYZ
    dof ry rz
    limits (-20.0 10.0)
           (0.0 20.0)
  end
  begin
     id 18 
     name lhumerus
     direction 1 -4.48991e-011 -2.25695e-027   
     length 4.83125   
     axis 180 -30 -90   XYZ
    dof rx ry rz
    limits (-60.0 90.0)
           (-90.0 90.0)
           (-90.0 90.0)
  end
  begin
     id 19
     name lradius
     direction 0.999991 0.00366712 -0.00211721   
     length 3.00391   
     axis 180 -30 -90   XYZ
    dof rx
    limits (-10.0 170.0)
  end
  begin
     id 20
     name lwrist
     direction 0.999991 0.00393016 -0.00141978   
     length 1.50195   
     axis -1.00488e-014 90 90   XYZ
    dof ry
    limits (-180.0 0.0)
 end
  begin
     id 21 
     name lhand
     direction 1 -4.49123e-011 2.72098e-026   
     length 1.2717   
     axis -1.73687e-014 90 90   XYZ
    dof rx rz
    limits (-90.0 90.0)
           (-45.0 45.0)
  end
  begin
     id 22 
     name lfingers
     direction 1 -4.48678e-011 5.4479e-026   
     length 1.02528   
     axis -3.47372e-014 90 90   XYZ
    dof rx
    limits (0.0 90.0)
  end
  begin
     id 23
     name lthumb
     direction 0.707107 -6.34851e-011 0.707107   
     length 1.4721   
     axis -90 45 -1.62303e-014   XYZ
    dof rx rz
    limits (-45.0 45.0)
           (-45.0 45.0)
  end
  begin
     id 24 
     name rclavicle
     direction -0.981723 0.189447 -0.0181673   
     length 3.74989  
     axis 0 0 0   XYZ 
    dof ry rz
    limits (-10.0 20.0)
           (-20.0 0.0)
  end
  begin
     id 25 
     name rhumerus
     direction -1 -4.48985e-011 2.38206e-027  
     length 4.61118   
     axis 180 30 90   XYZ
    dof rx ry rz
    limits (-90.0 60.0)
           (-90.0 90.0)
           (-90.0 90.0)
  end
  begin
     id 26 
     name rradius
     direction -1 -4.48977e-011 7.41019e-027   
     length 2.91491   
     axis 180 30 90   XYZ
    dof rx
    limits (-10.0 170.0)
  end
  begin
     id 27 
     name rwrist
     direction -1 -4.48549e-011 1.3624e-026   
     length 1.45745   
     axis -1.00488e-014 -90 -90   XYZ
    dof ry
    limits (-180.0 0.0)
  end
  begin
     id 28
     name rhand
     direction -1 -4.49107e-011 2.72109e-026   
     length 1.30769   
     axis -1.73687e-014 -90 -90   XYZ
    dof rx rz
    limits (-90.0 90.0)
           (-45.0 45.0)
  end
  begin
     id 29
     name rfingers
     direction -1 -4.48919e-011 5.44468e-026   
     length 1.05429   
     axis -3.47372e-014 -90 -90   XYZ
    dof rx
    limits (0.0 90.0)
  end
  begin
     id 30
     name rthumb
     direction -0.707107 -6.35315e-011 0.707107   
     length 1.51376   
     axis -90 -45 1.62303e-014   XYZ
    dof rx rz
    limits (-45.0 45.0)
           (-45.0 45.0)
  end
:hierarchy
  begin
    root lhipjoint rhipjoint lowerback
    lhipjoint lfemur
    lfemur ltibia
    ltibia lfoot
    lfoot ltoes
    rhipjoint rfemur
    rfemur rtibia
    rtibia rfoot
    rfoot rtoes
    lowerback upperback
    upperback thorax
    thorax lowerneck lclavicle rclavicle
    lowerneck upperneck
    upperneck head
    lclavicle lhumerus
    lhumerus lradius
    lradius lwrist
    lwrist lhand lthumb
    lhand lfingers
    rclavicle rhumerus
    rhumerus rradius
    rradius rwrist
    rwrist rhand rthumb
    rhand rfingers
  end

#!OML:ASF X:\für Bonn\!DataBase\2005_08_11_Bastian_Final\c3d\Bastian.ASF
:FULLY-SPECIFIED
:DEGREES
16
root -3.50063 16.8137 -18.7886 167.276 -15.6741 -180.073
lowerback 14.6231 -3.97116 -5.67199
upperback 9.9839 -7.47132 -1.99268
thorax 2.86458 -4.63063 1.88592
lowerneck -4.06177 -7.20713 -6.75246
upperneck -6.53676 -8.55417 12.8255
head -0.367814 -4.03905 4.80928
rclavicle -1.86858e-014 -2.62396e-014
rhumerus -33.0053 26.1755 -99.1785
rradius 120.221
rwrist 10.3294
rhand -28.4381 16.4952
rfingers 7.12502
rthumb -1.80902 -13.4768
lclavicle -1.86858e-014 -2.62396e-014
lhumerus -14.4958 -54.8568 100.516
lradius 111.603
lwrist 39.2358
lhand -16.0275 -21.6043
lfingers 7.12502
lthumb 10.1736 8.12974
rfemur -30.6042 -12.9925 18.86
rtibia 78.8893
rfoot -198.429 -177.649
rtoes -7.50156
lfemur 9.68754 -3.20185 -14.3665
ltibia 34.4099
lfoot -24.1865 -4.99223
ltoes -27.4234
17
root -3.49661 16.8192 -18.8897 167.478 -16.7928 -179.974
lowerback 14.6777 -3.99601 -5.59059
upperback 9.90651 -7.46321 -1.93826
thorax 2.74945 -4.60478 1.91111
lowerneck -3.95669 -7.45168 -6.53486
upperneck -6.53588 -8.88946 12.8867
head -0.359033 -4.21141 4.78433
rclavicle 2.68359e-014 -3.18055e-015
rhumerus -32.8491 26.0051 -98.8091
rradius 120.699
rwrist 10.6778
rhand -28.623 16.2501
rfingers 7.12502
rthumb -1.98761 -13.7204
lclavicle 2.68359e-014 -3.18055e-015
lhumerus -14.4188 -55.3424 100.51
lradius 111.664
lwrist 39.5045
lhand -16.2994 -21.6032
lfingers 7.12502
lthumb 9.91126 8.14353
rfemur -31.427 -12.9909 18.6369
rtibia 77.8827
rfoot -198.549 -178.117
rtoes -8.65155
lfemur 9.81004 -3.72304 -14.2
ltibia 33.931
lfoot -24.2308 -5.37239
ltoes -27.9946
18
root -3.4926 16.821 -18.9903 167.633 -17.8673 -179.916
lowerback 14.801 -3.98927 -5.52338
upperback 9.83318 -7.42525 -1.88967
thorax 2.60122 -4.56651 1.94209
lowerneck -3.86035 -7.69879 -6.36092
upperneck -6.51043 -9.22795 12.9866
head -0.337575 -4.38409 4.77686
rclavicle 1.8487e-014 1.66979e-014
rhumerus -32.6967 25.8192 -98.437
rradius 121.225
rwrist 11.0533
rhand -28.8279 15.9899
rfingers 7.12502
rthumb -2.1855 -13.9786
lclavicle 1.8487e-014 1.66979e-014
lhumerus -14.2181 -55.8611 100.421
lradius 111.744
lwrist 39.7502
lhand -16.5707 -21.5848
lfingers 7.12502
lthumb 9.64954 8.17423
rfemur -32.1214 -12.8754 18.2772
rtibia 76.7976
rfoot -198.492 -178.459
rtoes -8.89357
lfemur 9.97597 -4.21049 -14.0575
ltibia 33.4839
lfoot -24.2745 -5.80577
ltoes -28.3171
19
root -3.48846 16.8213 -19.0939 167.77 -18.9288 -179.914
lowerback 14.9468 -3.96352 -5.50891
upperback 9.75165 -7.37088 -1.85205
thorax 2.43654 -4.52208 1.99132
lowerneck -3.7295 -7.25266 -6.1982
upperneck -6.63152 -9.6654 13.0002
head -0.373576 -5.11794 4.75551
rclavicle 6.71892e-014 3.89618e-014
rhumerus -32.5529 25.6478 -98.0895
rradius 121.754
rwrist 11.3866
rhand -29.0129 15.7678
rfingers 7.12502
rthumb -2.36415 -14.1988
lclavicle 6.71892e-014 3.89618e-014
lhumerus -13.9807 -56.3653 100.337
lradius 111.827
lwrist 39.9306
lhand -16.7909 -21.592
lfingers 7.12502
lthumb 9.43713 8.17667
rfemur -32.6887 -12.6775 17.7833
rtibia 75.557
rfoot -198.281 -178.712
rtoes -8.54658
lfemur 10.2697 -4.70666 -13.967
ltibia 32.8638
lfoot -24.2176 -6.22532
ltoes -28.5415
20
root -3.48368 16.8184 -19.2003 167.839 -19.9533 -179.913
lowerback 15.129 -3.92189 -5.48825
upperback 9.69996 -7.30559 -1.82628
thorax 2.28151 -4.4763 2.02475
lowerneck -3.62911 -7.48414 -5.92404
upperneck -6.63245 -9.98453 13.006
head -0.373622 -5.28427 4.70615
rclavicle 1.31198e-013 -5.80451e-014
rhumerus -32.37 25.5193 -97.7713
rradius 122.314
rwrist 11.618
rhand -29.1736 15.5855
rfingers 7.12502
rthumb -2.51938 -14.3793
lclavicle 1.31198e-013 -5.80451e-014
lhumerus -13.5634 -56.8866 100.092
lradius 111.893
lwrist 40.0532
lhand -17.0014 -21.6705
lfingers 7.12502
lthumb 9.23397 8.10733
rfemur -33.0708 -12.374 17.2128
rtibia 74.2136
rfoot -198.088 -179.086
rtoes -7.83392
lfemur 10.6205 -5.15442 -13.8472
ltibia 32.2811
lfoot -24.1788 -6.67929
ltoes -28.7954
21
root -3.47937 16.8095 -19.3086 167.879 -20.9702 -179.991
lowerback 15.3553 -3.86371 -5.54463
upperback 9.65098 -7.23515 -1.80854
thorax 2.11482 -4.43275 2.09487
lowerneck -3.527 -7.70424 -5.70716
upperneck -6.59415 -10.2864 13.0457
head -0.359792 -5.4391 4.67561
rclavicle -5.36719e-014 -4.92986e-014
rhumerus -32.1755 25.3935 -97.4241
rradius 122.866
rwrist 11.8096
rhand -29.3144 15.4146
rfingers 7.12502
rthumb -2.65532 -14.5486
lclavicle -5.36719e-014 -4.92986e-014
lhumerus -13.0235 -57.4011 99.8169
lradius 111.885
lwrist 40.1457
lhand -17.2163 -21.8264
lfingers 7.12502
lthumb 9.02661 7.96049
rfemur -33.2824 -11.982 16.4793
rtibia 72.7908
rfoot -197.888 -179.673
rtoes -7.0755
lfemur 11.0111 -5.5784 -13.7935
ltibia 31.7507
lfoot -24.1748 -7.15797
ltoes -28.9705
22
root -3.47444 16.7896 -19.4204 167.683 -21.9694 -180.148
lowerback 15.8219 -3.7502 -5.68845
upperback 9.64887 -7.14102 -1.81732
thorax 1.87829 -4.38938 2.20315
lowerneck -3.36148 -7.918 -5.44189
upperneck -6.58336 -10.5795 13.0498
head -0.370613 -5.59222 4.63136
rclavicle -2.3059e-014 3.57812e-014
rhumerus -32.0527 25.2808 -97.1414
rradius 123.401
rwrist 11.9711
rhand -29.4975 15.3439
rfingers 7.12502
rthumb -2.83218 -14.617
lclavicle -2.3059e-014 3.57812e-014
lhumerus -12.4595 -57.8773 99.5464
lradius 111.846
lwrist 40.2215
lhand -17.3389 -21.9952
lfingers 7.12502
lthumb 8.90831 7.79676
rfemur -33.1171 -11.4949 15.5556
rtibia 71.3231
rfoot -197.741 -180.279
rtoes -6.0136
lfemur 11.638 -5.75012 -13.6952
ltibia 31.2938
lfoot -24.1876 -7.98469
ltoes -28.9302
23
root -3.46988 16.7626 -19.5353 167.424 -22.9363 -180.348
lowerback 16.3169 -3.60521 -5.87502
upperback 9.69053 -7.02538 -1.83041
thorax 1.6775 -4.34343 2.32549
lowerneck -3.23024 -8.12862 -5.19271
upperneck -6.45283 -10.9025 12.6787
head -0.425911 -5.7449 4.96824
rclavicle 3.95581e-014 -1.35174e-014
rhumerus -31.8628 25.2178 -96.8395
rradius 123.856
rwrist 12.1405
rhand -29.754 15.265
rfingers 7.12502
rthumb -3.07985 -14.6925
lclavicle 3.95581e-014 -1.35174e-014
lhumerus -11.4317 -58.3201 98.958
lradius 111.708
lwrist 40.4516
lhand -17.3944 -22.2074
lfingers 7.12502
lthumb 8.85481 7.58678
rfemur -32.7682 -10.9218 14.5437
rtibia 69.8147
rfoot -197.731 -180.848
rtoes -4.9098
lfemur 12.317 -5.6311 -13.4777
ltibia 30.8872
lfoot -24.1685 -9.16789
ltoes -28.5727
